<svg xmlns="http://www.w3.org/2000/svg" shape-rendering="geometricPrecision" text-rendering="geometricPrecision" image-rendering="optimizeQuality" fill-rule="evenodd" clip-rule="evenodd" viewBox="0 0 512 468.581"><path d="M36.947 410.222h159.91a17.457 17.457 0 014.848-9.25 17.432 17.432 0 0112.342-5.124h22.058v-49.006H29.802C13.408 346.842 0 333.406 0 317.04v-99.848c0-16.416 13.386-29.801 29.802-29.801h35.424v-31.057H31.318c-16.419 0-29.809-13.391-29.809-29.809V29.809C1.509 13.383 14.892 0 31.318 0H482.2C498.586 0 512 13.431 512 29.809v96.716c0 16.381-13.441 29.809-29.8 29.809h-36.131v31.057h34.62l.383.002.381.008h.003l.378.012.379.017h.015l.709.045.03.003h.005l.371.032.374.035h.007l.08.01.55.065.107.012h.01l.358.05.372.052.009.003.357.057.366.065h.012l.351.067c.486.094.966.199 1.442.316l.356.09.017.002.339.092a29.896 29.896 0 0113.271 7.709h.025a29.815 29.815 0 017.978 14.34v.009c.109.476.211.957.299 1.442v.01c.086.486.161.976.226 1.469v.008l.087.739v.005l.035.371.033.376v.005l.047.752v.005l.03.759.009.767v99.848l-.009.767-.03.762-.047.757-.068.752-.087.747-.05.371-.052.37h-.002l-.028.177-.094.558-.14.73-.159.722v.002l-.087.359-.088.356-.002.002-.095.357-.097.351v.002l-.105.351-.104.349-.003.002-.109.349-.115.346-.002.002-.12.344-.121.341-.003.003-.127.341-.129.336-.003.002-.042.105-.19.465-.042.1-.002.003-.048.109-.194.448-.047.105-.003.002-.152.329-.152.324-.002.002-.159.327-.04.079-.284.55-.007.013-.167.313-.003.005-.174.314-.174.309-.006.005-.061.109-.302.506-.002.005-.19.306-.189.299-.002.005-.197.301-.197.294-.002.005-.406.583-.003.004-.42.576-.003.005-.433.562-.003.005-.448.556v.002l-.231.274-.707.804v.003c-.322.353-.65.7-.986 1.036-.336.336-.683.664-1.036.986h-.003l-.804.707-.274.231h-.002l-.556.448-.005.003-.562.433-.005.003-.575.421-.006.002-.582.406-.005.002-.294.197-.301.197-.005.002-.299.189-.306.19-.005.002-.506.301-.109.063-.005.005-.309.174-.314.174-.005.003-.314.167-.012.007-.55.284-.08.04-.326.159-.002.003-.324.152-.329.151-.002.003-.105.047-.448.194-.11.048-.002.002-.1.042-.465.19-.105.042-.002.002-.337.13-.341.127-.002.003-.341.121-.344.12-.002.002-.347.115-.348.11-.003.002-.348.105-.351.104h-.003l-.351.097-.356.095-.002.003-.356.086-.359.088h-.002l-.723.159-.729.14-.558.094-.176.027v.003l-.372.052-.371.05-.746.087-.752.068-.757.047-.762.03-.767.01H274.382v49.006h22.056c4.776 0 9.138 1.967 12.308 5.129l.027.027a17.564 17.564 0 014.853 9.218h159.909c5.354 0 9.733 4.385 9.733 9.733v24.519c0 5.348-4.384 9.733-9.733 9.733H313.626a17.508 17.508 0 01-4.855 9.239c-3.16 3.16-7.535 5.135-12.333 5.135h-82.391c-4.768 0-9.135-1.967-12.31-5.132l-.027-.028c-2.463-2.47-4.203-5.664-4.85-9.214H36.947c-5.348 0-9.733-4.38-9.733-9.733v-24.519c0-5.353 4.38-9.733 9.733-9.733zm66.556-222.831h304.289v-31.057H103.503v31.057z"/><path fill="#C7D4DE" d="M31.318 13.177h312.055v129.98H31.318c-9.151 0-16.633-7.484-16.633-16.632V29.809c0-9.155 7.477-16.632 16.633-16.632z"/><path fill="#3B4F63" d="M356.55 13.177H482.2c9.146 0 16.623 7.482 16.623 16.632v96.716c0 9.143-7.482 16.632-16.623 16.632H356.55V13.177z"/><path fill="#A2AFBC" d="M29.802 200.567h313.571v133.098H29.802c-9.148 0-16.625-7.485-16.625-16.625v-99.848c0-9.148 7.477-16.625 16.625-16.625z"/><path fill="#3B4F63" d="M356.55 200.567h124.139c9.14 0 16.625 7.477 16.625 16.625v99.848c0 9.14-7.485 16.625-16.625 16.625H356.55V200.567z"/><path fill-rule="nonzero" d="M413.559 234.893h26.743c10.304 0 18.814 8.511 18.814 18.814v26.818c0 10.371-8.443 18.814-18.814 18.814h-26.743c-10.304 0-18.814-8.51-18.814-18.814v-26.818c0-10.378 8.436-18.814 18.814-18.814z"/><path fill="#6ECA6D" d="M413.559 248.069h26.743c3.105 0 5.638 2.535 5.638 5.638v26.818c0 3.103-2.535 5.637-5.638 5.637h-26.743c-3.103 0-5.638-2.531-5.638-5.637v-26.818a5.65 5.65 0 015.638-5.638z"/><path fill-rule="nonzero" d="M413.559 45.944h26.743c10.304 0 18.814 8.511 18.814 18.814v26.818c0 10.371-8.443 18.814-18.814 18.814h-26.743c-10.304 0-18.814-8.51-18.814-18.814V64.758c0-10.378 8.436-18.814 18.814-18.814z"/><path fill="#6ECA6D" d="M413.559 59.12h26.743c3.105 0 5.638 2.535 5.638 5.638v26.818c0 3.103-2.535 5.638-5.638 5.638h-26.743c-3.103 0-5.638-2.533-5.638-5.638V64.758a5.65 5.65 0 015.638-5.638z"/><path d="M66.727 92.363h35.274v24.294H66.727V92.363zm0 188.949h35.274v24.294H66.727v-24.294zm55.054-52.686h35.275v24.294h-35.275v-24.294zm0 52.686h35.275v24.294h-35.275v-24.294zm-55.054-52.686h35.274v24.294H66.727v-24.294zm55.054-188.949h35.275v24.294h-35.275V39.677zm0 52.686h35.275v24.294h-35.275V92.363zM66.727 39.677h35.274v24.294H66.727V39.677z"/><path fill="#A2AFBC" d="M214.047 402.436h82.391c5.984 0 10.878 4.918 10.878 10.879v37.799c0 5.961-4.917 10.878-10.878 10.878h-82.391c-5.961 0-10.878-4.895-10.878-10.878v-37.799c0-5.984 4.895-10.879 10.878-10.879z"/></svg>